<?xml version="1.0" encoding="UTF-8"?>
<svg width="113.68mm" height="38.366mm" version="1.1" viewBox="0 0 113.68 38.366" xmlns="http://www.w3.org/2000/svg" xmlns:cc="http://creativecommons.org/ns#" xmlns:dc="http://purl.org/dc/elements/1.1/" xmlns:rdf="http://www.w3.org/1999/02/22-rdf-syntax-ns#">
 <defs>
  <marker id="marker4141" overflow="visible" orient="auto">
   <path transform="scale(.6)" d="m8.7186 4.0337-10.926-4.0177 10.926-4.0177c-1.7455 2.3721-1.7354 5.6175-6e-7 8.0354z" fill-opacity=".91372" fill-rule="evenodd" stroke="#000" stroke-linejoin="round" stroke-opacity=".91372" stroke-width=".625"/>
  </marker>
  <marker id="marker2083" overflow="visible" orient="auto">
   <path transform="matrix(-.4 0 0 -.4 -4 0)" d="m0 0 5-5-17.5 5 17.5 5z" fill-rule="evenodd" stroke="#000" stroke-width="1pt"/>
  </marker>
  <marker id="Arrow1Mend" overflow="visible" orient="auto">
   <path transform="matrix(-.4 0 0 -.4 -4 0)" d="m0 0 5-5-17.5 5 17.5 5z" fill-rule="evenodd" stroke="#000" stroke-width="1pt"/>
  </marker>
  <marker id="marker2083-2" overflow="visible" orient="auto">
   <path transform="matrix(-.4 0 0 -.4 -4 0)" d="m0 0 5-5-17.5 5 17.5 5z" fill-rule="evenodd" stroke="#000" stroke-width="1pt"/>
  </marker>
  <marker id="Arrow1Mend-6" overflow="visible" orient="auto">
   <path transform="matrix(-.4 0 0 -.4 -4 0)" d="m0 0 5-5-17.5 5 17.5 5z" fill-rule="evenodd" stroke="#000" stroke-width="1pt"/>
  </marker>
  <marker id="marker2083-2-3" overflow="visible" orient="auto">
   <path transform="matrix(-.4 0 0 -.4 -4 0)" d="m0 0 5-5-17.5 5 17.5 5z" fill-rule="evenodd" stroke="#000" stroke-width="1pt"/>
  </marker>
  <marker id="Arrow1Mend-6-3" overflow="visible" orient="auto">
   <path transform="matrix(-.4 0 0 -.4 -4 0)" d="m0 0 5-5-17.5 5 17.5 5z" fill-rule="evenodd" stroke="#000" stroke-width="1pt"/>
  </marker>
  <marker id="marker4141-0" overflow="visible" orient="auto">
   <path transform="scale(.6)" d="m8.7186 4.0337-10.926-4.0177 10.926-4.0177c-1.7455 2.3721-1.7354 5.6175-6e-7 8.0354z" fill-opacity=".91372" fill-rule="evenodd" stroke="#000" stroke-linejoin="round" stroke-opacity=".91372" stroke-width=".625"/>
  </marker>
 </defs>
 <metadata>
  <rdf:RDF>
   <cc:Work rdf:about="">
    <dc:format>image/svg+xml</dc:format>
    <dc:type rdf:resource="http://purl.org/dc/dcmitype/StillImage"/>
    <dc:title/>
   </cc:Work>
  </rdf:RDF>
 </metadata>
 <g transform="translate(-98.71 -52.396)">
  <g stroke="#000">
   <path d="m45.773 87.048 42.995-0.26458" fill="none" marker-end="url(#marker2083)" stroke-width=".26458px"/>
   <path d="m45.773 87.048 31.089-29.898" fill="none" marker-end="url(#Arrow1Mend)" stroke-width=".26458px"/>
   <path transform="rotate(-42.522)" d="m-19.806 95.093a5.2917 5.2917 0 0 1-1.4091 3.5955" fill-opacity="0" stroke-width=".25646"/>
  </g>
  <g fill="#000000" font-family="sans-serif" stroke-width=".26458">
   <text transform="scale(.96673 1.0344)" x="44.19001" y="87.457512" font-size="3.8295px" style="line-height:1.25" xml:space="preserve"><tspan x="44.19001" y="87.457512" stroke-width=".26458">O</tspan></text>
   <text transform="scale(1.0512 .95133)" x="71.607719" y="59.075294" font-size="4.3373px" style="line-height:1.25" xml:space="preserve"><tspan x="71.607719" y="59.075294" stroke-width=".26458">B</tspan></text>
   <text transform="scale(.95943 1.0423)" x="92.094528" y="86.666542" font-size="3.9588px" style="line-height:1.25" xml:space="preserve"><tspan x="92.094528" y="86.666542" stroke-width=".26458">A</tspan></text>
  </g>
  <g fill="none" stroke="#000">
   <path d="m101.56 86.244 42.995-0.26459" marker-end="url(#marker2083-2)" stroke-width=".26458px"/>
   <path d="m101.56 86.244 31.089-29.898" marker-end="url(#Arrow1Mend-6)" stroke-width=".26458px"/>
   <path transform="rotate(-42.522)" d="m21.851 132.2a5.2917 5.2917 0 0 1-1.4091 3.5955" marker-start="url(#marker4141)" stroke-opacity=".91372" stroke-width=".256"/>
  </g>
  <g fill="#000000" font-family="sans-serif" stroke-width=".26458">
   <text transform="scale(.9288 1.0767)" x="106.05309" y="83.507034" font-size="3.9859px" style="line-height:1.25" xml:space="preserve"><tspan x="106.05309" y="83.507034" stroke-width=".26458">O</tspan></text>
   <text transform="scale(1.0099 .99018)" x="129.76651" y="56.198009" font-size="4.5144px" style="line-height:1.25" xml:space="preserve"><tspan x="129.76651" y="56.198009" stroke-width=".26458">B</tspan></text>
   <text transform="scale(.92179 1.0848)" x="156.37079" y="82.755638" font-size="4.1205px" style="line-height:1.25" xml:space="preserve"><tspan x="156.37079" y="82.755638" stroke-width=".26458">A</tspan></text>
   <text x="114.84979" y="83.220108" font-size="10.583px" style="line-height:1.25" xml:space="preserve"><tspan x="114.84979" y="83.220108" stroke-width=".26458"/></text>
   <text transform="scale(1.1027 .90688)" x="97.18499" y="93.685417" font-size="4.6247px" style="line-height:1.25" xml:space="preserve"><tspan x="97.18499" y="93.685417" stroke-width=".26458">θ</tspan></text>
  </g>
  <g fill="none" stroke="#000">
   <path d="m165.54 56.403 42.995 0.26459" marker-end="url(#marker2083-2-3)" stroke-width=".26458px"/>
   <path d="m165.54 56.403 31.089 29.898" marker-end="url(#Arrow1Mend-6-3)" stroke-width=".26458px"/>
   <path transform="matrix(.73702 .67587 .67587 -.73702 0 0)" d="m165.42 70.313a5.2917 5.2917 0 0 1-1.4091 3.5955" marker-start="url(#marker4141-0)" stroke-opacity=".91372" stroke-width=".256"/>
  </g>
  <g fill="#000000" font-family="sans-serif" stroke-width=".26458">
   <text transform="scale(.9288 1.0767)" x="174.23058" y="52.976128" font-size="3.9859px" style="line-height:1.25" xml:space="preserve"><tspan x="174.23058" y="52.976128" stroke-width=".26458">O</tspan></text>
   <text transform="scale(1.0099 .99018)" x="192.20674" y="91.661819" font-size="4.5144px" style="line-height:1.25" xml:space="preserve"><tspan x="192.20674" y="91.661819" stroke-width=".26458">B</tspan></text>
   <text transform="scale(.92179 1.0848)" x="227.64514" y="52.698658" font-size="4.1205px" style="line-height:1.25" xml:space="preserve"><tspan x="227.64514" y="52.698658" stroke-width=".26458">A</tspan></text>
   <text transform="scale(1.1027 -.90688)" x="155.21048" y="-63.883999" font-size="4.6247px" style="line-height:1.25" xml:space="preserve"><tspan x="155.21048" y="-63.883999" stroke-width=".26458">-θ</tspan></text>
  </g>
 </g>
</svg>
