<svg version="1.1" xmlns="http://www.w3.org/2000/svg" xmlns:xlink="http://www.w3.org/1999/xlink" width="1060" height="790"><defs><clipPath id="BOTftVWSxTHP"><path fill="none" stroke="none" d=" M 0 0 L 1060 0 L 1060 790 L 0 790 L 0 0 Z"/></clipPath></defs><g transform="scale(1,1)" clip-path="url(#BOTftVWSxTHP)"><g><rect fill="rgb(255,255,255)" stroke="none" x="0" y="0" width="1060" height="790" fill-opacity="1"/><path fill="none" stroke="rgb(192,192,192)" paint-order="fill stroke markers" d=" M 74.5 0.5 L 74.5 790.5 M 74.5 0.5 L 74.5 790.5 M 150.5 0.5 L 150.5 790.5 M 226.5 0.5 L 226.5 790.5 M 302.5 0.5 L 302.5 790.5 M 378.5 0.5 L 378.5 790.5 M 454.5 0.5 L 454.5 790.5 M 605.5 0.5 L 605.5 790.5 M 681.5 0.5 L 681.5 790.5 M 757.5 0.5 L 757.5 790.5 M 833.5 0.5 L 833.5 790.5 M 909.5 0.5 L 909.5 790.5 M 985.5 0.5 L 985.5 790.5" stroke-opacity="1" stroke-linecap="round" stroke-linejoin="round" stroke-miterlimit="10"/><path fill="none" stroke="rgb(192,192,192)" paint-order="fill stroke markers" d="" stroke-opacity="0.23529411764705882" stroke-linecap="round" stroke-linejoin="round" stroke-miterlimit="10"/><path fill="none" stroke="rgb(192,192,192)" paint-order="fill stroke markers" d=" M 0.5 14.5 L 1060.5 14.5 M 0.5 14.5 L 1060.5 14.5 M 0.5 90.5 L 1060.5 90.5 M 0.5 166.5 L 1060.5 166.5 M 0.5 242.5 L 1060.5 242.5 M 0.5 318.5 L 1060.5 318.5 M 0.5 394.5 L 1060.5 394.5 M 0.5 470.5 L 1060.5 470.5 M 0.5 546.5 L 1060.5 546.5 M 0.5 697.5 L 1060.5 697.5 M 0.5 773.5 L 1060.5 773.5" stroke-opacity="1" stroke-linecap="round" stroke-linejoin="round" stroke-miterlimit="10"/><path fill="none" stroke="rgb(192,192,192)" paint-order="fill stroke markers" d="" stroke-opacity="0.23529411764705882" stroke-linecap="round" stroke-linejoin="round" stroke-miterlimit="10"/><path fill="none" stroke="rgb(0,0,0)" paint-order="fill stroke markers" d=" M 530 3 L 530 790" stroke-opacity="1" stroke-miterlimit="10" stroke-width="2"/><path fill="none" stroke="rgb(0,0,0)" paint-order="fill stroke markers" d=" M 530 2 L 525 7" stroke-opacity="1" stroke-miterlimit="10" stroke-width="2"/><path fill="none" stroke="rgb(0,0,0)" paint-order="fill stroke markers" d=" M 530 2 L 535 7" stroke-opacity="1" stroke-miterlimit="10" stroke-width="2"/><path fill="none" stroke="rgb(0,0,0)" paint-order="fill stroke markers" d=" M 0 622 L 1057 622" stroke-opacity="1" stroke-miterlimit="10" stroke-width="2"/><path fill="none" stroke="rgb(0,0,0)" paint-order="fill stroke markers" d=" M 1058 622 L 1053 617" stroke-opacity="1" stroke-miterlimit="10" stroke-width="2"/><path fill="none" stroke="rgb(0,0,0)" paint-order="fill stroke markers" d=" M 1058 622 L 1053 627" stroke-opacity="1" stroke-miterlimit="10" stroke-width="2"/><text fill="rgb(0,0,0)" stroke="none" font-family="geogebra-sans-serif, sans-serif" font-size="12px" font-style="normal" font-weight="bold" text-decoration="normal" x="60" y="637" text-anchor="start" dominant-baseline="alphabetic" fill-opacity="1">–1.2</text><text fill="none" stroke="rgb(255,255,255)" font-family="geogebra-sans-serif, sans-serif" font-size="12px" font-style="normal" font-weight="bold" text-decoration="normal" x="60" y="637" text-anchor="start" dominant-baseline="alphabetic" stroke-opacity="1" stroke-linejoin="bevel" stroke-miterlimit="10" stroke-width="3">–1.2</text><text fill="rgb(0,0,0)" stroke="none" font-family="geogebra-sans-serif, sans-serif" font-size="12px" font-style="normal" font-weight="bold" text-decoration="normal" x="60" y="637" text-anchor="start" dominant-baseline="alphabetic" fill-opacity="1">–1.2</text><text fill="rgb(0,0,0)" stroke="none" font-family="geogebra-sans-serif, sans-serif" font-size="12px" font-style="normal" font-weight="bold" text-decoration="normal" x="144" y="637" text-anchor="start" dominant-baseline="alphabetic" fill-opacity="1">–1</text><text fill="none" stroke="rgb(255,255,255)" font-family="geogebra-sans-serif, sans-serif" font-size="12px" font-style="normal" font-weight="bold" text-decoration="normal" x="144" y="637" text-anchor="start" dominant-baseline="alphabetic" stroke-opacity="1" stroke-linejoin="bevel" stroke-miterlimit="10" stroke-width="3">–1</text><text fill="rgb(0,0,0)" stroke="none" font-family="geogebra-sans-serif, sans-serif" font-size="12px" font-style="normal" font-weight="bold" text-decoration="normal" x="144" y="637" text-anchor="start" dominant-baseline="alphabetic" fill-opacity="1">–1</text><text fill="rgb(0,0,0)" stroke="none" font-family="geogebra-sans-serif, sans-serif" font-size="12px" font-style="normal" font-weight="bold" text-decoration="normal" x="212" y="637" text-anchor="start" dominant-baseline="alphabetic" fill-opacity="1">–0.8</text><text fill="none" stroke="rgb(255,255,255)" font-family="geogebra-sans-serif, sans-serif" font-size="12px" font-style="normal" font-weight="bold" text-decoration="normal" x="212" y="637" text-anchor="start" dominant-baseline="alphabetic" stroke-opacity="1" stroke-linejoin="bevel" stroke-miterlimit="10" stroke-width="3">–0.8</text><text fill="rgb(0,0,0)" stroke="none" font-family="geogebra-sans-serif, sans-serif" font-size="12px" font-style="normal" font-weight="bold" text-decoration="normal" x="212" y="637" text-anchor="start" dominant-baseline="alphabetic" fill-opacity="1">–0.8</text><text fill="rgb(0,0,0)" stroke="none" font-family="geogebra-sans-serif, sans-serif" font-size="12px" font-style="normal" font-weight="bold" text-decoration="normal" x="288" y="637" text-anchor="start" dominant-baseline="alphabetic" fill-opacity="1">–0.6</text><text fill="none" stroke="rgb(255,255,255)" font-family="geogebra-sans-serif, sans-serif" font-size="12px" font-style="normal" font-weight="bold" text-decoration="normal" x="288" y="637" text-anchor="start" dominant-baseline="alphabetic" stroke-opacity="1" stroke-linejoin="bevel" stroke-miterlimit="10" stroke-width="3">–0.6</text><text fill="rgb(0,0,0)" stroke="none" font-family="geogebra-sans-serif, sans-serif" font-size="12px" font-style="normal" font-weight="bold" text-decoration="normal" x="288" y="637" text-anchor="start" dominant-baseline="alphabetic" fill-opacity="1">–0.6</text><text fill="rgb(0,0,0)" stroke="none" font-family="geogebra-sans-serif, sans-serif" font-size="12px" font-style="normal" font-weight="bold" text-decoration="normal" x="364" y="637" text-anchor="start" dominant-baseline="alphabetic" fill-opacity="1">–0.4</text><text fill="none" stroke="rgb(255,255,255)" font-family="geogebra-sans-serif, sans-serif" font-size="12px" font-style="normal" font-weight="bold" text-decoration="normal" x="364" y="637" text-anchor="start" dominant-baseline="alphabetic" stroke-opacity="1" stroke-linejoin="bevel" stroke-miterlimit="10" stroke-width="3">–0.4</text><text fill="rgb(0,0,0)" stroke="none" font-family="geogebra-sans-serif, sans-serif" font-size="12px" font-style="normal" font-weight="bold" text-decoration="normal" x="364" y="637" text-anchor="start" dominant-baseline="alphabetic" fill-opacity="1">–0.4</text><text fill="rgb(0,0,0)" stroke="none" font-family="geogebra-sans-serif, sans-serif" font-size="12px" font-style="normal" font-weight="bold" text-decoration="normal" x="440" y="637" text-anchor="start" dominant-baseline="alphabetic" fill-opacity="1">–0.2</text><text fill="none" stroke="rgb(255,255,255)" font-family="geogebra-sans-serif, sans-serif" font-size="12px" font-style="normal" font-weight="bold" text-decoration="normal" x="440" y="637" text-anchor="start" dominant-baseline="alphabetic" stroke-opacity="1" stroke-linejoin="bevel" stroke-miterlimit="10" stroke-width="3">–0.2</text><text fill="rgb(0,0,0)" stroke="none" font-family="geogebra-sans-serif, sans-serif" font-size="12px" font-style="normal" font-weight="bold" text-decoration="normal" x="440" y="637" text-anchor="start" dominant-baseline="alphabetic" fill-opacity="1">–0.2</text><text fill="rgb(0,0,0)" stroke="none" font-family="geogebra-sans-serif, sans-serif" font-size="12px" font-style="normal" font-weight="bold" text-decoration="normal" x="596" y="637" text-anchor="start" dominant-baseline="alphabetic" fill-opacity="1">0.2</text><text fill="none" stroke="rgb(255,255,255)" font-family="geogebra-sans-serif, sans-serif" font-size="12px" font-style="normal" font-weight="bold" text-decoration="normal" x="596" y="637" text-anchor="start" dominant-baseline="alphabetic" stroke-opacity="1" stroke-linejoin="bevel" stroke-miterlimit="10" stroke-width="3">0.2</text><text fill="rgb(0,0,0)" stroke="none" font-family="geogebra-sans-serif, sans-serif" font-size="12px" font-style="normal" font-weight="bold" text-decoration="normal" x="596" y="637" text-anchor="start" dominant-baseline="alphabetic" fill-opacity="1">0.2</text><text fill="rgb(0,0,0)" stroke="none" font-family="geogebra-sans-serif, sans-serif" font-size="12px" font-style="normal" font-weight="bold" text-decoration="normal" x="672" y="637" text-anchor="start" dominant-baseline="alphabetic" fill-opacity="1">0.4</text><text fill="none" stroke="rgb(255,255,255)" font-family="geogebra-sans-serif, sans-serif" font-size="12px" font-style="normal" font-weight="bold" text-decoration="normal" x="672" y="637" text-anchor="start" dominant-baseline="alphabetic" stroke-opacity="1" stroke-linejoin="bevel" stroke-miterlimit="10" stroke-width="3">0.4</text><text fill="rgb(0,0,0)" stroke="none" font-family="geogebra-sans-serif, sans-serif" font-size="12px" font-style="normal" font-weight="bold" text-decoration="normal" x="672" y="637" text-anchor="start" dominant-baseline="alphabetic" fill-opacity="1">0.4</text><text fill="rgb(0,0,0)" stroke="none" font-family="geogebra-sans-serif, sans-serif" font-size="12px" font-style="normal" font-weight="bold" text-decoration="normal" x="748" y="637" text-anchor="start" dominant-baseline="alphabetic" fill-opacity="1">0.6</text><text fill="none" stroke="rgb(255,255,255)" font-family="geogebra-sans-serif, sans-serif" font-size="12px" font-style="normal" font-weight="bold" text-decoration="normal" x="748" y="637" text-anchor="start" dominant-baseline="alphabetic" stroke-opacity="1" stroke-linejoin="bevel" stroke-miterlimit="10" stroke-width="3">0.6</text><text fill="rgb(0,0,0)" stroke="none" font-family="geogebra-sans-serif, sans-serif" font-size="12px" font-style="normal" font-weight="bold" text-decoration="normal" x="748" y="637" text-anchor="start" dominant-baseline="alphabetic" fill-opacity="1">0.6</text><text fill="rgb(0,0,0)" stroke="none" font-family="geogebra-sans-serif, sans-serif" font-size="12px" font-style="normal" font-weight="bold" text-decoration="normal" x="823" y="637" text-anchor="start" dominant-baseline="alphabetic" fill-opacity="1">0.8</text><text fill="none" stroke="rgb(255,255,255)" font-family="geogebra-sans-serif, sans-serif" font-size="12px" font-style="normal" font-weight="bold" text-decoration="normal" x="823" y="637" text-anchor="start" dominant-baseline="alphabetic" stroke-opacity="1" stroke-linejoin="bevel" stroke-miterlimit="10" stroke-width="3">0.8</text><text fill="rgb(0,0,0)" stroke="none" font-family="geogebra-sans-serif, sans-serif" font-size="12px" font-style="normal" font-weight="bold" text-decoration="normal" x="823" y="637" text-anchor="start" dominant-baseline="alphabetic" fill-opacity="1">0.8</text><text fill="rgb(0,0,0)" stroke="none" font-family="geogebra-sans-serif, sans-serif" font-size="12px" font-style="normal" font-weight="bold" text-decoration="normal" x="907" y="637" text-anchor="start" dominant-baseline="alphabetic" fill-opacity="1">1</text><text fill="none" stroke="rgb(255,255,255)" font-family="geogebra-sans-serif, sans-serif" font-size="12px" font-style="normal" font-weight="bold" text-decoration="normal" x="907" y="637" text-anchor="start" dominant-baseline="alphabetic" stroke-opacity="1" stroke-linejoin="bevel" stroke-miterlimit="10" stroke-width="3">1</text><text fill="rgb(0,0,0)" stroke="none" font-family="geogebra-sans-serif, sans-serif" font-size="12px" font-style="normal" font-weight="bold" text-decoration="normal" x="907" y="637" text-anchor="start" dominant-baseline="alphabetic" fill-opacity="1">1</text><text fill="rgb(0,0,0)" stroke="none" font-family="geogebra-sans-serif, sans-serif" font-size="12px" font-style="normal" font-weight="bold" text-decoration="normal" x="975" y="637" text-anchor="start" dominant-baseline="alphabetic" fill-opacity="1">1.2</text><text fill="none" stroke="rgb(255,255,255)" font-family="geogebra-sans-serif, sans-serif" font-size="12px" font-style="normal" font-weight="bold" text-decoration="normal" x="975" y="637" text-anchor="start" dominant-baseline="alphabetic" stroke-opacity="1" stroke-linejoin="bevel" stroke-miterlimit="10" stroke-width="3">1.2</text><text fill="rgb(0,0,0)" stroke="none" font-family="geogebra-sans-serif, sans-serif" font-size="12px" font-style="normal" font-weight="bold" text-decoration="normal" x="975" y="637" text-anchor="start" dominant-baseline="alphabetic" fill-opacity="1">1.2</text><text fill="rgb(0,0,0)" stroke="none" font-family="geogebra-sans-serif, sans-serif" font-size="12px" font-style="normal" font-weight="bold" text-decoration="normal" x="500" y="778" text-anchor="start" dominant-baseline="alphabetic" fill-opacity="1">–0.4</text><text fill="none" stroke="rgb(255,255,255)" font-family="geogebra-sans-serif, sans-serif" font-size="12px" font-style="normal" font-weight="bold" text-decoration="normal" x="500" y="778" text-anchor="start" dominant-baseline="alphabetic" stroke-opacity="1" stroke-linejoin="bevel" stroke-miterlimit="10" stroke-width="3">–0.4</text><text fill="rgb(0,0,0)" stroke="none" font-family="geogebra-sans-serif, sans-serif" font-size="12px" font-style="normal" font-weight="bold" text-decoration="normal" x="500" y="778" text-anchor="start" dominant-baseline="alphabetic" fill-opacity="1">–0.4</text><text fill="rgb(0,0,0)" stroke="none" font-family="geogebra-sans-serif, sans-serif" font-size="12px" font-style="normal" font-weight="bold" text-decoration="normal" x="500" y="702" text-anchor="start" dominant-baseline="alphabetic" fill-opacity="1">–0.2</text><text fill="none" stroke="rgb(255,255,255)" font-family="geogebra-sans-serif, sans-serif" font-size="12px" font-style="normal" font-weight="bold" text-decoration="normal" x="500" y="702" text-anchor="start" dominant-baseline="alphabetic" stroke-opacity="1" stroke-linejoin="bevel" stroke-miterlimit="10" stroke-width="3">–0.2</text><text fill="rgb(0,0,0)" stroke="none" font-family="geogebra-sans-serif, sans-serif" font-size="12px" font-style="normal" font-weight="bold" text-decoration="normal" x="500" y="702" text-anchor="start" dominant-baseline="alphabetic" fill-opacity="1">–0.2</text><text fill="rgb(0,0,0)" stroke="none" font-family="geogebra-sans-serif, sans-serif" font-size="12px" font-style="normal" font-weight="bold" text-decoration="normal" x="506" y="551" text-anchor="start" dominant-baseline="alphabetic" fill-opacity="1">0.2</text><text fill="none" stroke="rgb(255,255,255)" font-family="geogebra-sans-serif, sans-serif" font-size="12px" font-style="normal" font-weight="bold" text-decoration="normal" x="506" y="551" text-anchor="start" dominant-baseline="alphabetic" stroke-opacity="1" stroke-linejoin="bevel" stroke-miterlimit="10" stroke-width="3">0.2</text><text fill="rgb(0,0,0)" stroke="none" font-family="geogebra-sans-serif, sans-serif" font-size="12px" font-style="normal" font-weight="bold" text-decoration="normal" x="506" y="551" text-anchor="start" dominant-baseline="alphabetic" fill-opacity="1">0.2</text><text fill="rgb(0,0,0)" stroke="none" font-family="geogebra-sans-serif, sans-serif" font-size="12px" font-style="normal" font-weight="bold" text-decoration="normal" x="506" y="475" text-anchor="start" dominant-baseline="alphabetic" fill-opacity="1">0.4</text><text fill="none" stroke="rgb(255,255,255)" font-family="geogebra-sans-serif, sans-serif" font-size="12px" font-style="normal" font-weight="bold" text-decoration="normal" x="506" y="475" text-anchor="start" dominant-baseline="alphabetic" stroke-opacity="1" stroke-linejoin="bevel" stroke-miterlimit="10" stroke-width="3">0.4</text><text fill="rgb(0,0,0)" stroke="none" font-family="geogebra-sans-serif, sans-serif" font-size="12px" font-style="normal" font-weight="bold" text-decoration="normal" x="506" y="475" text-anchor="start" dominant-baseline="alphabetic" fill-opacity="1">0.4</text><text fill="rgb(0,0,0)" stroke="none" font-family="geogebra-sans-serif, sans-serif" font-size="12px" font-style="normal" font-weight="bold" text-decoration="normal" x="506" y="399" text-anchor="start" dominant-baseline="alphabetic" fill-opacity="1">0.6</text><text fill="none" stroke="rgb(255,255,255)" font-family="geogebra-sans-serif, sans-serif" font-size="12px" font-style="normal" font-weight="bold" text-decoration="normal" x="506" y="399" text-anchor="start" dominant-baseline="alphabetic" stroke-opacity="1" stroke-linejoin="bevel" stroke-miterlimit="10" stroke-width="3">0.6</text><text fill="rgb(0,0,0)" stroke="none" font-family="geogebra-sans-serif, sans-serif" font-size="12px" font-style="normal" font-weight="bold" text-decoration="normal" x="506" y="399" text-anchor="start" dominant-baseline="alphabetic" fill-opacity="1">0.6</text><text fill="rgb(0,0,0)" stroke="none" font-family="geogebra-sans-serif, sans-serif" font-size="12px" font-style="normal" font-weight="bold" text-decoration="normal" x="506" y="323" text-anchor="start" dominant-baseline="alphabetic" fill-opacity="1">0.8</text><text fill="none" stroke="rgb(255,255,255)" font-family="geogebra-sans-serif, sans-serif" font-size="12px" font-style="normal" font-weight="bold" text-decoration="normal" x="506" y="323" text-anchor="start" dominant-baseline="alphabetic" stroke-opacity="1" stroke-linejoin="bevel" stroke-miterlimit="10" stroke-width="3">0.8</text><text fill="rgb(0,0,0)" stroke="none" font-family="geogebra-sans-serif, sans-serif" font-size="12px" font-style="normal" font-weight="bold" text-decoration="normal" x="506" y="323" text-anchor="start" dominant-baseline="alphabetic" fill-opacity="1">0.8</text><text fill="rgb(0,0,0)" stroke="none" font-family="geogebra-sans-serif, sans-serif" font-size="12px" font-style="normal" font-weight="bold" text-decoration="normal" x="516" y="247" text-anchor="start" dominant-baseline="alphabetic" fill-opacity="1">1</text><text fill="none" stroke="rgb(255,255,255)" font-family="geogebra-sans-serif, sans-serif" font-size="12px" font-style="normal" font-weight="bold" text-decoration="normal" x="516" y="247" text-anchor="start" dominant-baseline="alphabetic" stroke-opacity="1" stroke-linejoin="bevel" stroke-miterlimit="10" stroke-width="3">1</text><text fill="rgb(0,0,0)" stroke="none" font-family="geogebra-sans-serif, sans-serif" font-size="12px" font-style="normal" font-weight="bold" text-decoration="normal" x="516" y="247" text-anchor="start" dominant-baseline="alphabetic" fill-opacity="1">1</text><text fill="rgb(0,0,0)" stroke="none" font-family="geogebra-sans-serif, sans-serif" font-size="12px" font-style="normal" font-weight="bold" text-decoration="normal" x="506" y="171" text-anchor="start" dominant-baseline="alphabetic" fill-opacity="1">1.2</text><text fill="none" stroke="rgb(255,255,255)" font-family="geogebra-sans-serif, sans-serif" font-size="12px" font-style="normal" font-weight="bold" text-decoration="normal" x="506" y="171" text-anchor="start" dominant-baseline="alphabetic" stroke-opacity="1" stroke-linejoin="bevel" stroke-miterlimit="10" stroke-width="3">1.2</text><text fill="rgb(0,0,0)" stroke="none" font-family="geogebra-sans-serif, sans-serif" font-size="12px" font-style="normal" font-weight="bold" text-decoration="normal" x="506" y="171" text-anchor="start" dominant-baseline="alphabetic" fill-opacity="1">1.2</text><text fill="rgb(0,0,0)" stroke="none" font-family="geogebra-sans-serif, sans-serif" font-size="12px" font-style="normal" font-weight="bold" text-decoration="normal" x="506" y="95" text-anchor="start" dominant-baseline="alphabetic" fill-opacity="1">1.4</text><text fill="none" stroke="rgb(255,255,255)" font-family="geogebra-sans-serif, sans-serif" font-size="12px" font-style="normal" font-weight="bold" text-decoration="normal" x="506" y="95" text-anchor="start" dominant-baseline="alphabetic" stroke-opacity="1" stroke-linejoin="bevel" stroke-miterlimit="10" stroke-width="3">1.4</text><text fill="rgb(0,0,0)" stroke="none" font-family="geogebra-sans-serif, sans-serif" font-size="12px" font-style="normal" font-weight="bold" text-decoration="normal" x="506" y="95" text-anchor="start" dominant-baseline="alphabetic" fill-opacity="1">1.4</text><text fill="rgb(0,0,0)" stroke="none" font-family="geogebra-sans-serif, sans-serif" font-size="12px" font-style="normal" font-weight="bold" text-decoration="normal" x="506" y="19" text-anchor="start" dominant-baseline="alphabetic" fill-opacity="1">1.6</text><text fill="none" stroke="rgb(255,255,255)" font-family="geogebra-sans-serif, sans-serif" font-size="12px" font-style="normal" font-weight="bold" text-decoration="normal" x="506" y="19" text-anchor="start" dominant-baseline="alphabetic" stroke-opacity="1" stroke-linejoin="bevel" stroke-miterlimit="10" stroke-width="3">1.6</text><text fill="rgb(0,0,0)" stroke="none" font-family="geogebra-sans-serif, sans-serif" font-size="12px" font-style="normal" font-weight="bold" text-decoration="normal" x="506" y="19" text-anchor="start" dominant-baseline="alphabetic" fill-opacity="1">1.6</text><text fill="rgb(0,0,0)" stroke="none" font-family="geogebra-sans-serif, sans-serif" font-size="12px" font-style="normal" font-weight="bold" text-decoration="normal" x="516" y="637" text-anchor="start" dominant-baseline="alphabetic" fill-opacity="1">0</text><text fill="none" stroke="rgb(255,255,255)" font-family="geogebra-sans-serif, sans-serif" font-size="12px" font-style="normal" font-weight="bold" text-decoration="normal" x="516" y="637" text-anchor="start" dominant-baseline="alphabetic" stroke-opacity="1" stroke-linejoin="bevel" stroke-miterlimit="10" stroke-width="3">0</text><text fill="rgb(0,0,0)" stroke="none" font-family="geogebra-sans-serif, sans-serif" font-size="12px" font-style="normal" font-weight="bold" text-decoration="normal" x="516" y="637" text-anchor="start" dominant-baseline="alphabetic" fill-opacity="1">0</text><path fill="none" stroke="rgb(21,101,192)" paint-order="fill stroke markers" d=" M 41.40625 -6.737718621399154 L 43.47656249999994 -1.4207216113683216 L 45.54687500000006 3.8736979166667425 L 47.61718750000006 9.145539962705925 L 49.6875 14.394804526748999 L 51.7578125 19.621491608796305 L 53.828125 24.82560120884773 L 55.8984375 30.007133326903272 L 57.96875 35.16608796296293 L 60.0390625 40.30246511702671 L 62.10937499999994 45.41626478909461 L 64.17968750000006 50.50748697916674 L 66.25000000000006 55.57613168724288 L 68.3203125 60.62219891332313 L 70.390625 65.64568865740739 L 74.53125 75.62493569958849 L 78.671875 85.51387281378595 L 82.81250000000006 95.31250000000011 L 86.953125 105.02081725823052 L 91.09375 114.63882458847735 L 95.234375 124.1665219907407 L 99.37499999999994 133.60390946502048 L 103.515625 142.9509870113169 L 107.65625 152.20775462962968 L 111.796875 161.37421231995881 L 115.93749999999994 170.45036008230443 L 120.07812500000006 179.43619791666674 L 124.21875 188.33172582304525 L 128.359375 197.13694380144028 L 132.5 205.8518518518518 L 136.64062499999994 214.47644997427966 L 140.78125 223.0107381687243 L 144.921875 231.4547164351851 L 149.0625 239.80838477366245 L 153.203125 248.07174318415633 L 157.34375 256.2447916666666 L 161.484375 264.32753022119334 L 165.625 272.31995884773653 L 169.765625 280.2220775462962 L 173.90625 288.0338863168723 L 178.046875 295.75538515946494 L 182.1875 303.386574074074 L 186.328125 310.92745306069946 L 190.46875 318.3780221193415 L 194.609375 325.7382812499999 L 198.75 333.0082304526748 L 202.890625 340.18786972736615 L 207.03125 347.27719907407396 L 211.171875 354.27621849279825 L 215.3125 361.184927983539 L 219.453125 368.0033275462962 L 223.59375 374.7314171810698 L 227.734375 381.36919688785997 L 231.875 387.9166666666665 L 236.015625 394.3738265174896 L 240.15625 400.7406764403291 L 244.296875 407.0172164351851 L 248.4375 413.20344650205743 L 252.578125 419.2993666409464 L 256.71875 425.30497685185173 L 260.859375 431.2202771347736 L 265 437.0452674897118 L 269.140625 442.7799479166665 L 273.28125 448.4243184156377 L 277.421875 453.97837898662533 L 281.5625 459.44212962962945 L 285.703125 464.81557034465004 L 289.84375 470.0987011316871 L 293.984375 475.29152199074053 L 298.125 480.39403292181055 L 302.265625 485.4062339248969 L 306.40625 490.3281249999999 L 310.546875 495.15970614711915 L 314.6875 499.90097736625495 L 318.828125 504.5519386574073 L 322.96875 509.1125900205759 L 327.109375 513.5829314557611 L 331.25 517.9629629629628 L 335.390625 522.2526845421809 L 339.53125 526.4520961934154 L 343.671875 530.5611979166665 L 347.8125 534.579989711934 L 351.953125 538.5084715792179 L 356.09375 542.3466435185184 L 360.234375 546.0945055298351 L 364.375 549.7520576131685 L 368.515625 553.3192997685182 L 372.65625 556.7962319958846 L 376.796875 560.1828542952672 L 380.9375 563.4791666666665 L 385.078125 566.6851691100821 L 389.21875 569.8008616255142 L 393.359375 572.8262442129628 L 397.5 575.7613168724278 L 401.640625 578.6060796039093 L 405.78125 581.3605324074072 L 409.92187499999994 584.0246752829216 L 414.0625 586.5985082304525 L 418.203125 589.0820312499998 L 422.34375 591.4752443415636 L 426.484375 593.7781475051438 L 430.62500000000006 595.9907407407405 L 434.765625 598.1130240483537 L 438.90625 600.1449974279833 L 443.046875 602.0866608796294 L 447.18749999999994 603.938014403292 L 451.328125 605.6990579989709 L 455.46875 607.3697916666664 L 459.609375 608.9502154063783 L 463.75 610.4403292181067 L 467.89062500000006 611.8401331018516 L 472.03125 613.149627057613 L 476.171875 614.3688110853907 L 480.3125 615.497685185185 L 484.45312500000006 616.5362493569957 L 488.59375 617.4845036008228 L 492.734375 618.3424479166664 L 496.875 619.1100823045265 L 501.01562499999994 619.787406764403 L 505.15625000000006 620.3744212962961 L 509.296875 620.8711259002056 L 513.4375 621.2775205761315 L 517.578125 621.5936053240738 L 521.71875 621.8193801440327 L 525.859375 621.954845036008 L 530 621.9999999999998 L 534.140625 621.954845036008 L 538.28125 621.8193801440327 L 542.421875 621.5936053240738 L 546.5625 621.2775205761315 L 550.703125 620.8711259002056 L 554.84375 620.3744212962961 L 558.984375 619.787406764403 L 563.125 619.1100823045265 L 567.265625 618.3424479166664 L 571.40625 617.4845036008228 L 575.546875 616.5362493569957 L 579.6875 615.497685185185 L 583.828125 614.3688110853907 L 587.96875 613.149627057613 L 592.109375 611.8401331018516 L 596.25 610.4403292181067 L 600.390625 608.9502154063783 L 604.53125 607.3697916666664 L 608.671875 605.6990579989709 L 612.8125 603.938014403292 L 616.953125 602.0866608796294 L 621.09375 600.1449974279833 L 625.234375 598.1130240483537 L 629.375 595.9907407407405 L 633.515625 593.7781475051438 L 637.65625 591.4752443415636 L 641.796875 589.0820312499998 L 645.9375 586.5985082304525 L 650.078125 584.0246752829216 L 654.21875 581.3605324074072 L 658.359375 578.6060796039093 L 662.5 575.7613168724278 L 666.640625 572.8262442129628 L 670.78125 569.8008616255142 L 674.921875 566.6851691100821 L 679.0625 563.4791666666665 L 683.203125 560.1828542952674 L 687.34375 556.7962319958846 L 691.484375 553.3192997685182 L 695.625 549.7520576131685 L 699.765625 546.0945055298353 L 703.90625 542.3466435185182 L 708.046875 538.5084715792179 L 712.1875 534.579989711934 L 716.328125 530.5611979166665 L 720.46875 526.4520961934155 L 724.609375 522.2526845421809 L 728.75 517.9629629629628 L 732.890625 513.5829314557611 L 737.03125 509.11259002057596 L 741.171875 504.55193865740716 L 745.3125 499.90097736625495 L 749.453125 495.15970614711915 L 753.59375 490.3281249999999 L 757.734375 485.40623392489704 L 761.875 480.3940329218105 L 766.015625 475.29152199074053 L 770.15625 470.0987011316871 L 774.296875 464.81557034465004 L 778.4375 459.44212962962956 L 782.578125 453.97837898662544 L 786.71875 448.4243184156376 L 790.859375 442.7799479166664 L 795 437.0452674897117 L 799.140625 431.2202771347735 L 803.28125 425.30497685185173 L 807.421875 419.2993666409464 L 811.5625 413.20344650205755 L 815.703125 407.0172164351851 L 819.84375 400.7406764403292 L 823.984375 394.3738265174894 L 828.125 387.91666666666646 L 832.265625 381.3691968878599 L 836.40625 374.7314171810698 L 840.546875 368.0033275462962 L 844.6875 361.184927983539 L 848.828125 354.2762184927983 L 852.96875 347.2771990740741 L 857.109375 340.1878697273663 L 861.25 333.0082304526747 L 865.390625 325.73828124999983 L 869.53125 318.37802211934144 L 873.671875 310.92745306069946 L 877.8125 303.386574074074 L 881.953125 295.75538515946494 L 886.09375 288.0338863168724 L 890.234375 280.2220775462963 L 894.375 272.3199588477367 L 898.515625 264.3275302211932 L 902.65625 256.2447916666665 L 906.796875 248.07174318415622 L 910.9375 239.80838477366245 L 915.078125 231.4547164351851 L 919.21875 223.0107381687243 L 923.359375 214.47644997427983 L 927.5 205.85185185185196 L 931.640625 197.13694380144045 L 935.78125 188.33172582304508 L 939.921875 179.43619791666657 L 944.0625 170.45036008230443 L 948.203125 161.37421231995881 L 952.34375 152.20775462962968 L 956.484375 142.9509870113169 L 960.625 133.60390946502065 L 964.765625 124.16652199074088 L 968.90625 114.63882458847718 L 973.046875 105.0208172582303 L 977.1875 95.31249999999989 L 981.328125 85.51387281378595 L 985.46875 75.62493569958849 L 989.609375 65.64568865740739 L 991.6796875 60.622198913322904 L 993.75 55.57613168724288 L 995.8203125 50.50748697916663 L 997.890625 45.416264789094726 L 999.9609375 40.30246511702671 L 1002.03125 35.16608796296316 L 1004.1015625 30.007133326903272 L 1006.171875 24.825601208847615 L 1008.2421875 19.621491608796305 L 1010.3125 14.394804526748885 L 1012.3828125 9.145539962705925 L 1014.453125 3.8736979166666288 L 1016.5234375 -1.4207216113680943 L 1018.59375 -6.737718621399154" stroke-opacity="0.8" stroke-linecap="round" stroke-linejoin="round" stroke-miterlimit="10" stroke-width="2.5"/><text fill="rgb(21,101,192)" stroke="none" font-family="geogebra-sans-serif, sans-serif" font-size="16px" font-style="normal" font-weight="normal" text-decoration="normal" x="55" y="16" text-anchor="start" dominant-baseline="alphabetic" fill-opacity="1">g</text><text fill="none" stroke="rgb(255,255,255)" font-family="geogebra-sans-serif, sans-serif" font-size="16px" font-style="normal" font-weight="normal" text-decoration="normal" x="55" y="16" text-anchor="start" dominant-baseline="alphabetic" stroke-opacity="1" stroke-linejoin="bevel" stroke-miterlimit="10" stroke-width="3">g</text><text fill="rgb(21,101,192)" stroke="none" font-family="geogebra-sans-serif, sans-serif" font-size="16px" font-style="normal" font-weight="normal" text-decoration="normal" x="55" y="16" text-anchor="start" dominant-baseline="alphabetic" fill-opacity="1">g</text><path fill="none" stroke="rgb(46,125,50)" paint-order="fill stroke markers" d=" M 530 621.9999999999998 L 530.0001 621.9999999999998 M 530 621.9999999999998 L 530.2587890625 612.0874336235275 L 530.517578125 607.9815141924691 L 531.03515625 602.1748672470552 L 532.0703125 593.9630283849385 L 533.10546875 587.6618628051019 L 534.140625 582.3497344941106 L 536.2109375 573.4385406723472 L 538.28125 565.9260567698773 L 540.3515625 559.3074255854907 L 542.421875 553.3237256102041 L 544.4921875 547.8211455911708 L 546.5625 542.6994689882215 L 550.703125 533.3393110029166 L 554.84375 524.8770813446947 L 558.984375 517.0952580537345 L 563.125 509.8521135397548 L 567.265625 503.0492034823324 L 571.40625 496.61485117098175 L 575.546875 490.49494647899434 L 579.6875 484.64745122040847 L 583.828125 479.0389346327554 L 587.96875 473.64229118234175 L 592.109375 468.4351820229888 L 596.25 463.3989379764433 L 600.390625 458.51776723543446 L 604.53125 453.7781703096323 L 608.671875 449.16849957527245 L 612.8125 444.67862200583346 L 616.953125 440.29965699416636 L 621.09375 436.02376978999416 L 625.234375 431.84400677913777 L 629.375 427.75416268938966 L 633.515625 423.7486724705542 L 637.65625 419.82252246633624 L 641.796875 415.9711768306128 L 645.9375 412.19051610746925 L 650.078125 408.47678560414647 L 654.21875 404.8265517135552 L 658.359375 401.23666473956183 L 662.5 397.7042270795098 L 666.640625 394.2265658495538 L 670.78125 390.80120921731634 L 674.921875 387.42586584607704 L 679.0625 384.09840696466506 L 683.203125 380.81685066440144 L 687.34375 377.57934809405907 L 691.484375 374.38417127975714 L 695.625 371.22970234196373 L 699.765625 368.1144239185935 L 703.90625 365.03691063330683 L 708.046875 361.9958214728797 L 712.1875 358.9898929579889 L 716.328125 356.0179330087503 L 720.46875 353.07881542053036 L 724.609375 350.1714748774282 L 728.75 347.2949024408171 L 732.890625 344.4481414587759 L 737.03125 341.63028384938724 L 741.171875 338.84046671697126 L 745.3125 336.0778692655111 L 749.453125 333.34170997797816 L 753.59375 330.6312440340846 L 757.734375 327.9457609422835 L 761.875 325.28458236468373 L 766.015625 322.6470601160101 L 770.15625 320.032574319886 L 774.296875 317.4405317075782 L 778.4375 314.87036404597785 L 782.578125 312.32152668301643 L 786.71875 309.7934971999699 L 790.859375 307.28577416120396 L 795 304.7978759528868 L 799.140625 302.3293397030505 L 803.28125 299.87972027614404 L 807.421875 297.44858933589165 L 811.5625 295.03553447086915 L 815.703125 292.6401583777438 L 819.84375 290.26207809759643 L 823.984375 287.90092430116977 L 828.125 285.55634061926474 L 832.265625 283.22798301484863 L 836.40625 280.9155191937411 L 840.546875 278.6186280510215 L 844.6875 276.3369991505452 L 848.828125 274.07033223518044 L 852.96875 271.8183367655793 L 857.109375 269.5807314854752 L 861.25 267.35724401166715 L 865.390625 265.1476104469977 L 869.53125 262.95157501476876 L 873.671875 260.7688897131606 L 877.8125 258.59931398833294 L 881.953125 256.44261442498834 L 886.09375 254.29856445327113 L 890.234375 252.16694407095957 L 894.375 250.0475395799885 L 898.515625 247.940143336407 L 902.65625 245.84455351294565 L 906.796875 243.7605738734224 L 910.9375 241.68801355827577 L 915.078125 239.62668688055942 L 919.21875 237.5764131317835 L 923.359375 235.53701639702575 L 927.5 233.5083253787795 L 931.640625 231.4901732290367 L 935.78125 229.48239738914225 L 939.921875 227.4848394369834 L 944.0625 225.49734494110857 L 948.203125 223.51976332139412 L 952.34375 221.55194771590504 L 956.484375 219.59375485361466 L 960.625 217.6450449326727 L 964.765625 215.7056815039278 L 968.90625 213.7755313594306 L 973.046875 211.85446442565933 L 977.1875 209.94235366122587 L 981.328125 208.03907495883408 L 985.46875 206.14450705127712 L 989.609375 204.25853142127158 L 993.75 202.38103221493873 L 997.890625 200.5118961587554 L 1002.03125 198.6510124798038 L 1006.171875 196.79827282916312 L 1010.3125 194.95357120829323 L 1014.453125 193.11680389826677 L 1018.59375 191.28786939171857 L 1022.734375 189.46666832738453 L 1026.875 187.65310342711058 L 1031.015625 185.84707943521943 L 1035.15625 184.04850306012736 L 1039.296875 182.25728291811043 L 1043.4375 180.4733294791239 L 1047.578125 178.69655501458396 L 1051.71875 176.92687354702565 L 1055.859375 175.1642008015553 L 1060 173.40845415901975" stroke-opacity="0.8" stroke-linecap="round" stroke-linejoin="round" stroke-miterlimit="10" stroke-width="2.5"/></g></g></svg>